<svg xmlns="http://www.w3.org/2000/svg" viewBox="0 0 1024 1024" width="1024" height="1024">
  
  <circle cx="512" cy="512" r="360" fill="#0f0e13" stroke="#c9a96a" stroke-width="25.200000000000003"/>
  <circle cx="512" cy="512" r="324" fill="none" stroke="#e6cd97" stroke-width="4.32" opacity="0.7"/>
  <rect x="872" y="481.4" width="28.8" height="61.2" rx="9" fill="#c9a96a"/>
  <line x1="512" y1="216.8" x2="512" y2="256.4" stroke="#e8d6a8" stroke-width="12.600000000000001" stroke-linecap="round"/>
  <line x1="659.5999999999999" y1="256.3493008028337" x2="639.8" y2="290.64390679269746" stroke="#e8d6a8" stroke-width="5.76" stroke-linecap="round"/>
  <line x1="767.6506991971662" y1="364.4" x2="733.3560932073025" y2="384.2" stroke="#e8d6a8" stroke-width="5.76" stroke-linecap="round"/>
  <line x1="807.2" y1="512" x2="767.6" y2="512" stroke="#e8d6a8" stroke-width="12.600000000000001" stroke-linecap="round"/>
  <line x1="767.6506991971663" y1="659.5999999999999" x2="733.3560932073026" y2="639.8" stroke="#e8d6a8" stroke-width="5.76" stroke-linecap="round"/>
  <line x1="659.5999999999999" y1="767.6506991971663" x2="639.8" y2="733.3560932073026" stroke="#e8d6a8" stroke-width="5.76" stroke-linecap="round"/>
  <line x1="512" y1="807.2" x2="512" y2="767.6" stroke="#e8d6a8" stroke-width="12.600000000000001" stroke-linecap="round"/>
  <line x1="364.4" y1="767.6506991971662" x2="384.2" y2="733.3560932073025" stroke="#e8d6a8" stroke-width="5.76" stroke-linecap="round"/>
  <line x1="256.3493008028338" y1="659.6000000000001" x2="290.6439067926975" y2="639.8000000000001" stroke="#e8d6a8" stroke-width="5.76" stroke-linecap="round"/>
  <line x1="216.8" y1="512" x2="256.4" y2="512" stroke="#e8d6a8" stroke-width="12.600000000000001" stroke-linecap="round"/>
  <line x1="256.34930080283374" y1="364.4" x2="290.6439067926975" y2="384.2" stroke="#e8d6a8" stroke-width="5.76" stroke-linecap="round"/>
  <line x1="364.39999999999986" y1="256.3493008028338" x2="384.1999999999999" y2="290.6439067926975" stroke="#e8d6a8" stroke-width="5.76" stroke-linecap="round"/>
  <line x1="512" y1="512" x2="364.5526320279815" y2="408.7562414568117" stroke="#e8d6a8" stroke-width="18" stroke-linecap="round"/>
  <line x1="512" y1="512" x2="736.4737846609264" y2="382.4" stroke="#e8d6a8" stroke-width="13.68" stroke-linecap="round"/>
  <circle cx="512" cy="512" r="19.8" fill="#c9a96a"/>
  <circle cx="512" cy="512" r="7.92" fill="#0a0a0c"/>
</svg>